<?xml version="1.0" encoding="utf-8"?>
<?xml-stylesheet type="text/xsl" href="rss1.xsl"?>
<rss version="2.0" xmlns:atom="http://www.w3.org/2005/Atom" xmlns:content="http://purl.org/rss/1.0/modules/content/" xmlns:dc="http://purl.org/dc/elements/1.1/" xmlns:media="http://search.yahoo.com/mrss/">
<channel>
 <title>Getty</title>
 <link>http://www.gettyimg.com/</link>
 <atom:link href="http://www.gettyimg.com/" rel="self" type="application/rss+xml" />

 
                <item>
                <title><![CDATA[【HD Live Performances】FEED - Miley Cyrus - 66th Annual Grammy Awards FEED HDTV H264 1080i MP2-ilya2129]]></title>
                <link><![CDATA[https://sharemania.us/threads/miley-cyrus-66th-annual-grammy-awards-feed-hdtv-h264-1080i-mp2-ilya2129.237127/]]></link>
                <description><![CDATA[<article>
<blockquote class="messageText SelectQuoteContainer ugc baseHtml">
<img src="https://i.imgur.com/zRZ2RFX.jpg" class="bbCodeImage LbImage" alt="[​IMG]" data-url="https://i.imgur.com/zRZ2RFX.jpg" style=""><br>
<br>
<div class="bbCodeBlock bbCodeCode">
<div class="type">Code:</div>
<pre>General
Unique ID                      : 190275059477577329436780261983427424313 (0x8F25A4BA9142307A891E0D16ECDEF039)
Complete name                  : C:\Users\Miley Cyrus - 66th Annual Grammy Awards FEED HDTV H264 1080i MP2-ilya2129.mkv
Format                         : Matroska
Format version                 : Version 4
File size                      : 1.01 GiB
Duration                       : 5 min 39 s
Overall bit rate               : 25.5 Mb/s
Frame rate                     : 25.000 FPS
Encoded date                   : 2024-02-05 20:11:56 UTC
Writing application            : mkvmerge v82.0 ('I'm The President') 64-bit
Writing library                : libebml v1.4.5 + libmatroska v1.7.1

Video
ID                             : 1
Format                         : AVC
Format/Info                    : Advanced Video Codec
Format profile                 : High@L4.1
Format settings                : CABAC / 4 Ref Frames
Format settings, CABAC         : Yes
Format settings, Reference fra : 4 frames
Format settings, GOP           : M=4, N=32
Codec ID                       : V_MPEG4/ISO/AVC
Duration                       : 5 min 39 s
Bit rate                       : 25.1 Mb/s
Width                          : 1 920 pixels
Height                         : 1 080 pixels
Display aspect ratio           : 16:9
Frame rate mode                : Variable
Frame rate                      : 25.000 FPS
Color space                    : YUV
Chroma subsampling             : 4:2:0
Bit depth                      : 8 bits
Scan type                      : Interlaced
Scan type, store method        : Separated fields
Scan order                     : Top Field First
Bits/(Pixel*Frame)             : 0.242
Stream size                    : 1 014 MiB (98%)
Default                        : Yes
Forced                         : No
Color range                    : Limited
Color primaries                : BT.709
Transfer characteristics       : BT.709
Matrix coefficients            : BT.709

Audio
ID                             : 2
Format                         : MPEG Audio
Format version                 : Version 1
Format profile                 : Layer 2
Codec ID                       : A_MPEG/L2
Codec ID/Hint                  : MP2
Duration                       : 5 min 39 s
Bit rate mode                  : Constant
Bit rate                       : 384 kb/s
Channel(s)                     : 2 channels
Sampling rate                  : 48.0 kHz
Frame rate                     : 41.667 FPS (1152 SPF)
Compression mode               : Lossy
Delay relative to video        : 120 ms
Stream size                    : 15.5 MiB (2%)
Language                       : English
Default                        : Yes
Forced                         : No

</pre>
</div><br>
<br>
Thanks to <a href="https://sharemania.us/members/78522/" class="username" data-user="78522, @ilya2129">@ilya2129</a> ,cut by me<br>
<br>
<div class="bbCodeBlock bbCodeVfcHH HiddenContent">
<div class="attribution type">Hidden Content:</div>
<blockquote>You must reply before you can see the hidden data contained here.</blockquote>
</div>
<div class="messageTextEndMarker">&nbsp;</div>
</blockquote>
</article>]]></description>
                <author><![CDATA[harmonizer54]]></author>
                </item>

                </channel></rss>